<?xml version="1.0" encoding="utf-8"?>
<!-- Generator: Adobe Illustrator 22.0.0, SVG Export Plug-In . SVG Version: 6.00 Build 0)  -->
<svg width="595.3" height="250" xmlns="http://www.w3.org/2000/svg" xmlns:svg="http://www.w3.org/2000/svg">
 <style type="text/css">.st0{fill:#213043;}
	.st1{fill:#ADC8C5;}</style>
 <g class="layer">
  <title>Layer 1</title>
  <g id="svg_1">
   <polygon class="st0" id="svg_2" points="253.42851736963533,1.2999956607818604 204.70687979338803,144.7877655029297 218.98736005990034,144.7877655029297 253.42851736963533,41.60700607299805 274.1892420346103,102.65453338623047 261.1087737040525,140.8744659423828 301.3100982723354,140.8744659423828 288.58973515777507,101.6109848022461 308.63036602132524,40.82434844970703 343.4315285779976,144.7877655029297 358.1920602711198,144.7877655029297 309.35040983822,1.2999956607818604 281.38946360392765,79.8269271850586 "/>
   <path class="st0" d="m1.30004,146.61396" id="svg_3"/>
   <rect class="st1" height="1.82621" id="svg_4" width="593.89999" x="1.30004" y="145.70086"/>
   <path class="st0" d="m254.38856,198.4l-51.36173,-50.22072l18.72063,0l33.36112,34.04573l18.36062,-18.65341l-14.8805,-14.34878l46.20155,0l-13.80046,13.827l18.36062,18.9143l33.36112,-33.78485l17.04057,0l-50.88171,50.22072l-27.48092,-26.87134l-27.00091,26.87134zm27.00091,-28.69755l27.48092,26.87134l47.6416,-46.95963l-13.20044,0l-33.96114,34.30662l-20.16068,-20.7405l12.36042,-12.39213l-39.60133,0l13.44045,13.04434l-20.16068,20.47962l-33.96114,-34.69795l-15.0005,0l48.12162,46.95963l27.00091,-26.87134z" id="svg_5"/>
  </g>
 </g>
</svg>