<?xml version="1.0" encoding="utf-8"?>
<!-- Generator: Adobe Illustrator 22.0.0, SVG Export Plug-In . SVG Version: 6.00 Build 0)  -->
<svg version="1.1" id="Layer_1" xmlns="http://www.w3.org/2000/svg" xmlns:xlink="http://www.w3.org/1999/xlink" x="0px" y="0px"
	 viewBox="0 50 595.3 180" style="enable-background:new 0 0 595.3 841.9;" xml:space="preserve">
<style type="text/css">
	.st0{fill:#213043;}
	.st1{fill:#ADC8C5;}
</style>
<g>
	<polygon class="st0" points="268.4,67.3 227.8,177.3 239.7,177.3 268.4,98.2 285.7,145 274.8,174.3 308.3,174.3 297.7,144.2 
		314.4,97.6 343.4,177.3 355.7,177.3 315,67.3 291.7,127.5 	"/>
	<path class="st0" d="M58.3,178.7"/>
	<rect x="58.3" y="178" class="st1" width="494.9" height="1.4"/>
	<path class="st0" d="M269.2,218.4l-42.8-38.5H242l27.8,26.1l15.3-14.3l-12.4-11h38.5l-11.5,10.6l15.3,14.5l27.8-25.9H357
		l-42.4,38.5l-22.9-20.6L269.2,218.4z M291.7,196.4l22.9,20.6l39.7-36h-11L315,207.3l-16.8-15.9l10.3-9.5h-33l11.2,10l-16.8,15.7
		L241.6,181h-12.5l40.1,36L291.7,196.4z"/>
</g>
</svg>
