<?xml version="1.0" encoding="utf-8"?>
<!-- Generator: Adobe Illustrator 22.0.0, SVG Export Plug-In . SVG Version: 6.00 Build 0)  -->
<svg version="1.1" id="Layer_1" xmlns="http://www.w3.org/2000/svg" xmlns:xlink="http://www.w3.org/1999/xlink" x="0px" y="0px"
	 viewBox="0 0 595.3 841.9" style="enable-background:new 0 0 595.3 841.9;" xml:space="preserve">
<style type="text/css">
	.st0{fill:#F0F0F0;}
	.st1{fill:none;stroke:#FFFFFF;stroke-width:0.75;}
	.st2{fill:none;stroke:#F0F0F0;stroke-width:2;}
	.st3{fill:none;stroke:#213043;}
	.st4{fill:none;stroke:#213043;stroke-width:3;}
</style>
<g>
	<polygon class="st0" points="212.4,196.5 257.1,76.4 281.7,143 306.4,76.4 350.8,196.5 337.5,196.5 306.4,110.4 288.2,160.5 
		300.1,192.5 263.4,192.6 275.4,160.6 257.1,110.3 225.9,196.5 	"/>
</g>
<g>
	<line class="st0" x1="30.6" y1="197.9" x2="564.6" y2="197.9"/>
	<line class="st1" x1="30.6" y1="197.9" x2="564.6" y2="197.9"/>
	<line class="st0" x1="30.6" y1="197.9" x2="564.6" y2="197.9"/>
	<line class="st0" x1="30.6" y1="197.9" x2="564.6" y2="197.9"/>
	<line class="st0" x1="30.6" y1="197.9" x2="564.6" y2="197.9"/>
	<line class="st0" x1="30.6" y1="197.9" x2="564.6" y2="197.9"/>
	<line class="st0" x1="30.6" y1="197.9" x2="564.6" y2="197.9"/>
	<line class="st2" x1="30.6" y1="197.9" x2="564.6" y2="197.9"/>
	<line class="st0" x1="30.6" y1="197.9" x2="564.6" y2="197.9"/>
</g>
<g>
	<polygon class="st3" points="213.5,201.7 256.8,242 281.1,219.9 305.6,242 349.7,201.2 336.6,201.2 305.9,230.3 287.9,213.6 
		299.3,202.9 262.9,202.8 274.7,213.6 257.1,230.3 225.9,201.2 	"/>
	<polygon class="st4" points="213.5,201.7 256.8,242 281.1,219.9 305.6,242 349.7,201.2 336.6,201.2 305.9,230.3 287.9,213.6 
		299.3,202.9 262.9,202.8 274.7,213.6 257.1,230.3 225.9,201.2 	"/>
</g>
</svg>
